<svg xmlns="http://www.w3.org/2000/svg" width="1200" height="675" viewBox="0 0 1200 675" role="img" aria-label="Tropical beach with turquoise water">
  <defs>
    <linearGradient id="sky" x1="0" x2="0" y1="0" y2="1">
      <stop offset="0" stop-color="#38bdf8"/>
      <stop offset="1" stop-color="#a7f3d0"/>
    </linearGradient>
    <linearGradient id="sea" x1="0" x2="1" y1="0" y2="0">
      <stop offset="0" stop-color="#06b6d4"/>
      <stop offset="1" stop-color="#22c55e"/>
    </linearGradient>
    <linearGradient id="sand" x1="0" x2="1" y1="0" y2="1">
      <stop offset="0" stop-color="#fde68a"/>
      <stop offset="1" stop-color="#fbbf24"/>
    </linearGradient>
    <filter id="soft" x="-10%" y="-10%" width="120%" height="120%">
      <feGaussianBlur in="SourceGraphic" stdDeviation="6" />
    </filter>
  </defs>

  <rect width="1200" height="675" fill="url(#sky)"/>

  <circle cx="980" cy="130" r="60" fill="#fde68a" opacity="0.95" />
  <circle cx="980" cy="130" r="110" fill="#fde68a" opacity="0.25" filter="url(#soft)" />

  <path d="M0 360 C 260 320, 420 350, 640 330 C 860 310, 1040 330, 1200 305 L 1200 675 L 0 675 Z" fill="url(#sea)" opacity="0.95"/>
  <path d="M0 470 C 260 420, 480 500, 720 455 C 930 415, 1070 470, 1200 440 L 1200 675 L 0 675 Z" fill="url(#sand)"/>

  <path d="M210 445 C 240 370, 270 340, 300 310" stroke="#0f172a" stroke-opacity="0.35" stroke-width="18" stroke-linecap="round"/>
  <path d="M300 310 C 315 290, 340 265, 380 255" stroke="#0f172a" stroke-opacity="0.35" stroke-width="18" stroke-linecap="round"/>
  <path d="M300 310 C 310 295, 328 272, 352 258" stroke="#22c55e" stroke-opacity="0.65" stroke-width="22" stroke-linecap="round"/>
  <path d="M300 310 C 290 292, 270 270, 242 255" stroke="#22c55e" stroke-opacity="0.65" stroke-width="22" stroke-linecap="round"/>
  <path d="M300 310 C 318 295, 348 286, 378 288" stroke="#22c55e" stroke-opacity="0.65" stroke-width="22" stroke-linecap="round"/>

  <rect x="0" y="520" width="1200" height="155" fill="#020617" opacity="0.28"/>

  <g opacity="0.9">
    <text x="56" y="610" font-family="ui-sans-serif, system-ui, -apple-system, Segoe UI, Roboto, Helvetica, Arial" font-size="34" fill="#ffffff">Beach</text>
    <text x="56" y="646" font-family="ui-sans-serif, system-ui, -apple-system, Segoe UI, Roboto, Helvetica, Arial" font-size="18" fill="#e2e8f0">Tropical preview</text>
  </g>
</svg>

