<svg xmlns="http://www.w3.org/2000/svg" width="512" height="512" viewBox="0 0 512 512">
  <!-- 香蕉主体 -->
  <path d="M384 128c0-53-43-96-96-96S192 75 192 128c0 17.7 5.7 33.8 15.4 46.9L144 320c-44.2 0-80 35.8-80 80v32c0 17.7 14.3 32 32 32h288c17.7 0 32-14.3 32-32v-32c0-44.2-35.8-80-80-80l-63.4-145.1c9.7-13.1 15.4-29.2 15.4-46.9z" fill="#FFD700" stroke="#FFC107" stroke-width="8" stroke-linecap="round" stroke-linejoin="round"/>
  
  <!-- 香蕉内部渐变 -->
  <path d="M224 128c0-26.5 21.5-48 48-48s48 21.5 48 48c0 11.2-3.7 21.7-10.1 30.1L208 320c-22.1 0-40 17.9-40 40v32h256v-32c0-22.1-17.9-40-40-40l-91.9-202.1c-6.4-8.4-10.1-18.9-10.1-30.1z" fill="#FFF8DC" opacity="0.8"/>
  
  <!-- AI芯片/神经网络节点 -->
  <circle cx="256" cy="200" r="32" fill="#4CAF50" stroke="#2E7D32" stroke-width="4"/>
  <circle cx="256" cy="200" r="16" fill="#81C784"/>
  
  <!-- 图像编辑元素 - 魔法棒 -->
  <path d="M320 240l-16 16-32-32-16 16 32 32-16 16" stroke="#2196F3" stroke-width="4" stroke-linecap="round" stroke-linejoin="round"/>
  <circle cx="336" cy="224" r="8" fill="#2196F3"/>
  
  <!-- 像素点 - 代表图像编辑 -->
  <rect x="208" y="160" width="8" height="8" fill="#FF5722"/>
  <rect x="224" y="160" width="8" height="8" fill="#E91E63"/>
  <rect x="240" y="160" width="8" height="8" fill="#9C27B0"/>
  <rect x="256" y="160" width="8" height="8" fill="#673AB7"/>
  <rect x="272" y="160" width="8" height="8" fill="#3F51B5"/>
  <rect x="288" y="160" width="8" height="8" fill="#2196F3"/>
  
  <!-- 高光效果 -->
  <path d="M224 128c0-26.5 21.5-48 48-48s48 21.5 48 48" fill="none" stroke="#FFFFFF" stroke-width="4" opacity="0.5"/>
</svg>